<svg width="30" height="30" viewBox="0 0 30 30" fill="none" xmlns="http://www.w3.org/2000/svg">
<g clip-path="url(#clip0)">
<path d="M19.1062 0.156755C18.9947 0.0558825 18.8497 0 18.6994 0H6.60129C5.26271 0.00142074 4.17821 1.08616 4.17655 2.42473V23.294C4.17821 24.6324 5.26271 25.7171 6.60129 25.7188H10.8765V29.3937C10.8765 29.6303 11.0141 29.8453 11.2291 29.9445C11.4439 30.0435 11.6968 30.0082 11.8767 29.8545L15.0175 27.167L18.1581 29.8543C18.338 30.0082 18.5909 30.0433 18.8057 29.9443C19.0207 29.8453 19.1583 29.6303 19.1583 29.3937V25.7188H23.4335C24.7721 25.7171 25.8568 24.6324 25.8583 23.294V6.53352C25.8583 6.36232 25.7858 6.19894 25.6587 6.08409L19.1062 0.156755ZM19.2966 1.96394L23.6542 5.90555H19.9028C19.5682 5.90508 19.297 5.63395 19.2966 5.29937V1.96394ZM15.0175 21.094C13.0356 21.094 11.4287 19.4874 11.4287 17.5054C11.4287 15.5235 13.0356 13.9169 15.0175 13.9169C16.9995 13.9169 18.6061 15.5235 18.6061 17.5054C18.604 19.4864 16.9985 21.0919 15.0175 21.094ZM15.4115 25.9084C15.1847 25.7145 14.8504 25.7145 14.6235 25.9084L12.0889 28.0774V21.3059C13.8134 22.64 16.2216 22.64 17.9462 21.3059V28.0772L15.4115 25.9084ZM23.4335 24.5064H19.1585V19.9302C20.3415 17.9134 19.8997 15.3376 18.1119 13.8302C16.3241 12.323 13.7107 12.323 11.9229 13.8302C10.1351 15.3376 9.6933 17.9134 10.8765 19.9302V24.5064H6.60129C5.93212 24.5057 5.38963 23.9632 5.38892 23.294V2.42473C5.38963 1.75556 5.93212 1.21308 6.60129 1.21237H18.0842V5.29937C18.0854 6.30312 18.899 7.11674 19.9028 7.11792H24.6459V23.294C24.6452 23.9632 24.1029 24.5057 23.4335 24.5064Z" fill="#CED8E6"/>
</g>
<defs>
<clipPath id="clip0">
<rect width="30" height="30" fill="white"/>
</clipPath>
</defs>
</svg>
