<svg width="30" height="30" viewBox="0 0 30 30" fill="none" xmlns="http://www.w3.org/2000/svg">
<path d="M22.9735 12.8965L21.077 14.793L20.4305 14.1465L19.7235 14.8535L20.7235 15.8535C20.9187 16.0487 21.2352 16.0487 21.4305 15.8535L23.6805 13.6035L22.9735 12.8965Z" fill="#CED8E6"/>
<path d="M15.077 2.5H9.07698V3.5H15.077V2.5Z" fill="#CED8E6"/>
<path d="M18.077 4.5H6.07698V5.5H18.077V4.5Z" fill="#CED8E6"/>
<path d="M15.077 22.5H3.07698V23.5H15.077V22.5Z" fill="#CED8E6"/>
<path d="M15.077 24.5H3.07698V25.5H15.077V24.5Z" fill="#CED8E6"/>
<path d="M28.775 19.013L25.5095 15.75C25.6066 15.2035 25.5986 14.6435 25.486 14.1L28.777 10.8085C28.972 10.6131 28.9717 10.2964 28.7762 10.1014C28.6963 10.0216 28.5916 9.97125 28.4795 9.9585L25.6945 9.65L25.384 6.867C25.354 6.5925 25.1073 6.39419 24.8327 6.42413C24.7198 6.43644 24.6144 6.48681 24.5339 6.567L23.0769 8.023V0.5C23.0769 0.223875 22.853 0 22.5769 0H1.57689C1.30076 0 1.07689 0.223875 1.07689 0.5V29.5C1.07689 29.7761 1.30076 30 1.57689 30H22.5769C22.853 30 23.0769 29.7761 23.0769 29.5V21.8L24.5334 23.2565C24.729 23.4514 25.0456 23.4509 25.2405 23.2553C25.3207 23.1748 25.3711 23.0694 25.3834 22.9565L25.6939 20.1735L28.4774 19.863C28.7518 19.8319 28.9489 19.5842 28.9178 19.3097C28.9051 19.1976 28.8548 19.0929 28.775 19.013ZM24.5055 8.009L24.745 10.156C24.7711 10.3881 24.9543 10.5711 25.1865 10.597L27.3335 10.8365L25.124 13.0455C24.5061 11.7681 23.323 10.856 21.9305 10.5835L24.5055 8.009ZM20.08 19.385L17.6485 21.8165L17.409 19.6695C17.3831 19.4373 17.1997 19.2539 16.9675 19.228L14.8205 18.989L16.973 16.836C17.5523 18.1254 18.7023 19.0688 20.08 19.385ZM14.8205 10.8365L16.9675 10.597C17.1996 10.5711 17.3828 10.3881 17.409 10.156L17.6485 8.009L20.2235 10.5835C18.8309 10.856 17.6478 11.7681 17.03 13.0455L14.8205 10.8365ZM17.577 15C17.577 13.067 19.1439 11.5 21.077 11.5C23.01 11.5 24.577 13.067 24.577 15C24.5744 16.9319 23.0089 18.4975 21.077 18.5C19.1439 18.5 17.577 16.933 17.577 15ZM22.077 29H2.07695V1H22.077V9H22.1L21.077 10.023L17.6205 6.5665C17.4248 6.37156 17.1083 6.37213 16.9133 6.56775C16.8331 6.64825 16.7828 6.75362 16.7705 6.86656L16.4595 9.65006L13.676 9.96056C13.4016 9.99175 13.2044 10.2394 13.2356 10.5138C13.2483 10.6261 13.2987 10.7306 13.3785 10.8106L16.668 14.1001C16.5553 14.6436 16.5473 15.2036 16.6445 15.7501L13.377 19.0166C13.1819 19.212 13.1822 19.5286 13.3777 19.7237C13.4576 19.8035 13.5623 19.8538 13.6745 19.8666L16.458 20.1771L16.7685 22.9601C16.7984 23.2346 17.0451 23.4329 17.3197 23.4029C17.4326 23.3906 17.538 23.3403 17.6185 23.2601L21.077 19.8001L22.077 20.8001V29ZM25.1865 19.228C24.9542 19.2539 24.7708 19.4373 24.745 19.6695L24.5055 21.8165L22.074 19.385C23.4519 19.0686 24.6019 18.1247 25.181 16.835L27.3335 18.988L25.1865 19.228Z" fill="#CED8E6"/>
<path d="M12.077 18.5H3.07698V19.5H12.077V18.5Z" fill="#CED8E6"/>
<path d="M12.077 20.5H3.07698V21.5H12.077V20.5Z" fill="#CED8E6"/>
</svg>
