<svg width="30" height="30" viewBox="0 0 30 30" fill="none" xmlns="http://www.w3.org/2000/svg">
<path d="M15 0C11.4816 0 8.17179 1.37262 5.68033 3.86502L6.92351 5.10773C9.08298 2.9475 11.9513 1.75781 15 1.75781C18.0488 1.75781 20.917 2.9475 23.0765 5.10773L24.3197 3.86502C21.8282 1.37262 18.5185 0 15 0Z" fill="#CED8E6"/>
<path d="M15 7.08154C13.3519 7.08154 11.7676 7.72121 10.6532 8.83654L11.8967 10.079C12.6839 9.29117 13.8149 8.83935 15 8.83935C16.1851 8.83935 17.3162 9.29117 18.1033 10.079L19.3468 8.83654C18.2324 7.72121 16.6481 7.08154 15 7.08154Z" fill="#CED8E6"/>
<path d="M15 3.51562C12.4215 3.51562 9.99473 4.52232 8.16672 6.35033L9.40967 7.59328C10.9057 6.09732 12.891 5.27344 15 5.27344C17.1089 5.27344 19.0943 6.09732 20.5903 7.59328L21.8332 6.35033C20.0052 4.52232 17.5785 3.51562 15 3.51562Z" fill="#CED8E6"/>
<path d="M23.8477 12.3633H6.15234C2.75994 12.3633 0 15.1232 0 18.5156C0 21.908 2.75994 24.668 6.15234 24.668H10.2692L9.09088 28.2422H7.08984V30C8.0509 30 22.3694 30 22.9102 30V28.2422H20.9091L19.7308 24.668H23.8477C27.2401 24.668 30 21.908 30 18.5156C30 15.1232 27.2401 12.3633 23.8477 12.3633ZM10.9417 28.2422L12.12 24.668H17.8799L19.0583 28.2422H10.9417ZM23.8477 22.9102C22.9032 22.9102 7.08516 22.9102 6.15234 22.9102C3.7292 22.9102 1.75781 20.9388 1.75781 18.5156C1.75781 16.0925 3.7292 14.1211 6.15234 14.1211H23.8477C26.2708 14.1211 28.2422 16.0925 28.2422 18.5156C28.2422 20.9388 26.2708 22.9102 23.8477 22.9102Z" fill="#CED8E6"/>
<path d="M6.15234 15.8789C4.69846 15.8789 3.51562 17.0617 3.51562 18.5156C3.51562 19.9695 4.69846 21.1523 6.15234 21.1523C7.60623 21.1523 8.78906 19.9695 8.78906 18.5156C8.78906 17.0617 7.60623 15.8789 6.15234 15.8789ZM6.15234 19.3945C5.66771 19.3945 5.27344 19.0003 5.27344 18.5156C5.27344 18.031 5.66771 17.6367 6.15234 17.6367C6.63697 17.6367 7.03125 18.031 7.03125 18.5156C7.03125 19.0003 6.63697 19.3945 6.15234 19.3945Z" fill="#CED8E6"/>
<path d="M15 15.8789C13.5461 15.8789 12.3633 17.0617 12.3633 18.5156C12.3633 19.9695 13.5461 21.1523 15 21.1523C16.4539 21.1523 17.6367 19.9695 17.6367 18.5156C17.6367 17.0617 16.4539 15.8789 15 15.8789ZM15 19.3945C14.5154 19.3945 14.1211 19.0003 14.1211 18.5156C14.1211 18.031 14.5154 17.6367 15 17.6367C15.4846 17.6367 15.8789 18.031 15.8789 18.5156C15.8789 19.0003 15.4846 19.3945 15 19.3945Z" fill="#CED8E6"/>
<path d="M23.8477 15.8789C22.3938 15.8789 21.2109 17.0617 21.2109 18.5156C21.2109 19.9695 22.3938 21.1523 23.8477 21.1523C25.3015 21.1523 26.4844 19.9695 26.4844 18.5156C26.4844 17.0617 25.3015 15.8789 23.8477 15.8789ZM23.8477 19.3945C23.363 19.3945 22.9688 19.0003 22.9688 18.5156C22.9688 18.031 23.363 17.6367 23.8477 17.6367C24.3323 17.6367 24.7266 18.031 24.7266 18.5156C24.7266 19.0003 24.3323 19.3945 23.8477 19.3945Z" fill="#CED8E6"/>
</svg>
