<svg width="30" height="30" viewBox="0 0 30 30" fill="none" xmlns="http://www.w3.org/2000/svg">
<path d="M10 0C5.85787 0 2.5 3.35787 2.5 7.5V13C2.50219 14.9321 4.06794 16.4978 6 16.5H6.5V15.5H6C4.62 15.4984 3.50162 14.38 3.5 13V7.5C3.5 3.91013 6.41013 1 10 1C13.5899 1 16.5 3.91013 16.5 7.5V13C16.4984 14.38 15.38 15.4984 14 15.5H13.5V16.5H14C15.9321 16.4978 17.4978 14.9321 17.5 13V7.5C17.5 3.35787 14.1421 0 10 0Z" fill="#CED8E6"/>
<path d="M4.12047 23.5644L4.48597 22.9889L3.64147 22.4529L3.27597 23.0289C2.17053 24.7709 2.2526 27.0139 3.48247 28.6704V29.9999H4.48247V28.4999C4.48253 28.3863 4.4439 28.2761 4.37297 28.1874C3.30997 26.8585 3.20853 25.0011 4.12047 23.5644Z" fill="#CED8E6"/>
<path d="M27.5 0H21C19.62 0.001625 18.5016 1.12 18.5 2.5V7.5C18.5016 8.88 19.62 9.99837 21 10H22V12C21.9999 12.2022 22.1217 12.3846 22.3085 12.462C22.3692 12.4873 22.4342 12.5002 22.5 12.5C22.6326 12.5 22.7598 12.4473 22.8535 12.3535L25.207 10H27.5C28.88 9.99837 29.9984 8.88 30 7.5V2.5C29.9984 1.12 28.88 0.001625 27.5 0ZM29 7.5C29 8.32844 28.3284 9 27.5 9H25C24.8674 9 24.7402 9.05275 24.6465 9.1465L23 10.793V9.5C23 9.22388 22.7761 9 22.5 9H21C20.1716 9 19.5 8.32844 19.5 7.5V2.5C19.5 1.67156 20.1716 1 21 1H27.5C28.3284 1 29 1.67156 29 2.5V7.5Z" fill="#CED8E6"/>
<path d="M24.5 2.5H21V3.5H24.5V2.5Z" fill="#CED8E6"/>
<path d="M27.5 2.5H25.5V3.5H27.5V2.5Z" fill="#CED8E6"/>
<path d="M27.5 4.5H21V5.5H27.5V4.5Z" fill="#CED8E6"/>
<path d="M24.5 6.5H21V7.5H24.5V6.5Z" fill="#CED8E6"/>
<path d="M16.724 23.0289L16.3585 22.4529L15.514 22.9889L15.8795 23.5649C16.7915 25.0014 16.6901 26.8587 15.627 28.1874C15.556 28.2761 15.5174 28.3863 15.5175 28.4999V29.9999H16.5175V28.6704C17.7474 27.0139 17.8294 24.7709 16.724 23.0289Z" fill="#CED8E6"/>
<path d="M29.5 17H25C23.124 17.0022 21.5834 18.4831 21.507 20.3575L20 23.0705V21C19.9978 19.068 18.4321 17.5022 16.5 17.5H14.6725L14.659 17.4895L14.65 17.5H13.5C12.9477 17.5 12.5 17.0524 12.5 16.5001V15.3236C14.0449 14.4316 14.9976 12.784 15 11.0001V7.00006C14.9993 6.17162 14.7931 5.35631 14.4 4.62706C14.2741 4.39506 13.9894 4.30088 13.75 4.41206L5.287 8.39406C5.11175 8.47656 4.99994 8.65287 5 8.84656V11.0001C5.00238 12.784 5.95506 14.4316 7.5 15.3236V16.5001C7.5 17.0524 7.05231 17.5 6.5 17.5H3.5C1.56794 17.5022 0.0021875 19.068 0 21V30H1V21C1.00162 19.62 2.12 18.5017 3.5 18.5H5.091L9.5935 24.791C9.686 24.9204 9.8345 24.9979 9.9935 25H10C10.1574 25 10.3056 24.9259 10.4 24.8L15.15 18.5H16.5C17.88 18.5017 18.9984 19.62 19 21V25C19.0002 25.2762 19.2243 25.4999 19.5004 25.4996C19.6818 25.4994 19.8489 25.4011 19.937 25.2425L22.294 21H25.1605L20.2855 30H21.423L26.3 21H26.5C28.4321 20.9979 29.9978 19.4321 30 17.5C30 17.2239 29.7761 17 29.5 17ZM6 11.0001V9.16406L13.7205 5.53106C13.9052 5.99881 14 6.49719 14 7.00006V11.0001C14 13.2092 12.2091 15.0001 10 15.0001C7.79087 15.0001 6 13.2092 6 11.0001ZM10.0105 23.656L8.4675 21.5H11.6355L10.0105 23.656ZM12.392 20.5H7.75L6.3185 18.5H6.5C7.60456 18.5 8.5 17.6046 8.5 16.5001V15.7696C9.47637 16.0769 10.5236 16.0769 11.5 15.7696V16.5001C11.5 17.6046 12.3954 18.5 13.5 18.5H13.9L12.392 20.5ZM26.5 20H22.55C22.7891 18.8367 23.8124 18.0014 25 18H28.95C28.7109 19.1634 27.6876 19.9987 26.5 20Z" fill="#CED8E6"/>
</svg>
